<?xml version="1.0" encoding="UTF-8" standalone="no"?>
<!-- Created with Inkscape (http://www.inkscape.org/) -->

<svg
   xmlns:dc="http://purl.org/dc/elements/1.1/"
   xmlns:cc="http://creativecommons.org/ns#"
   xmlns:rdf="http://www.w3.org/1999/02/22-rdf-syntax-ns#"
   xmlns:svg="http://www.w3.org/2000/svg"
   xmlns="http://www.w3.org/2000/svg"
   xmlns:sodipodi="http://sodipodi.sourceforge.net/DTD/sodipodi-0.dtd"
   xmlns:inkscape="http://www.inkscape.org/namespaces/inkscape"
   width="210mm"
   height="297mm"
   viewBox="0 0 210 297"
   version="1.1"
   id="svg8"
   inkscape:version="0.92.2 5c3e80d, 2017-08-06"
   sodipodi:docname="smiley.svg">
  <defs
     id="defs2">
    <inkscape:perspective
       sodipodi:type="inkscape:persp3d"
       inkscape:vp_x="0 : 148.5 : 1"
       inkscape:vp_y="0 : 1000 : 0"
       inkscape:vp_z="210 : 148.5 : 1"
       inkscape:persp3d-origin="105 : 99 : 1"
       id="perspective3756" />
  </defs>
  <sodipodi:namedview
     id="base"
     pagecolor="#ffffff"
     bordercolor="#666666"
     borderopacity="1.0"
     inkscape:pageopacity="0.0"
     inkscape:pageshadow="2"
     inkscape:zoom="0.70710678"
     inkscape:cx="328.35258"
     inkscape:cy="531.0336"
     inkscape:document-units="mm"
     inkscape:current-layer="layer2"
     showgrid="false"
     inkscape:object-paths="false"
     inkscape:window-width="1280"
     inkscape:window-height="707"
     inkscape:window-x="0"
     inkscape:window-y="1"
     inkscape:window-maximized="1" />
  <metadata
     id="metadata5">
    <rdf:RDF>
      <cc:Work
         rdf:about="">
        <dc:format>image/svg+xml</dc:format>
        <dc:type
           rdf:resource="http://purl.org/dc/dcmitype/StillImage" />
        <dc:title />
      </cc:Work>
    </rdf:RDF>
  </metadata>
  <g
     inkscape:label="Layer 1"
     inkscape:groupmode="layer"
     id="layer1" />
  <g
     inkscape:groupmode="layer"
     id="layer2"
     inkscape:label="Layer2">
    <path
       id="path3781"
       style="fill:#000000;stroke-width:0.26458332"
       d="m 126.58818,147.62752 a 29.368752,18.25625 0 0 1 -10.1676,20.25733 29.368752,18.25625 0 0 1 -34.123843,0.59408 29.368752,18.25625 0 0 1 -11.975574,-19.87184 m 20.695499,-31.25917 a 8.9958334,10.318749 0 0 1 -8.995834,10.31875 8.9958334,10.318749 0 0 1 -8.995833,-10.31875 8.9958334,10.318749 0 0 1 8.995833,-10.31875 8.9958334,10.318749 0 0 1 8.995834,10.31875 z m 33.337498,0 a 8.9958334,10.318749 0 0 1 -8.99583,10.31875 8.9958334,10.318749 0 0 1 -8.99583,-10.31875 8.9958334,10.318749 0 0 1 8.99583,-10.31875 8.9958334,10.318749 0 0 1 8.99583,10.31875 z M 99.218749,78.983291 A 53.710413,53.710413 0 0 0 45.508333,132.69371 53.710413,53.710413 0 0 0 99.218749,186.40412 53.710413,53.710413 0 0 0 152.92916,132.69371 53.710413,53.710413 0 0 0 99.218749,78.983291 Z m -0.264584,7.408334 A 46.037497,46.566666 0 0 1 144.99166,132.95829 46.037497,46.566666 0 0 1 98.954165,179.52496 46.037497,46.566666 0 0 1 52.916666,132.95829 46.037497,46.566666 0 0 1 98.954165,86.391625 Z" />
  </g>
</svg>
