<?xml version="1.0" encoding="UTF-8" standalone="no"?>
<!-- Created with Inkscape (http://www.inkscape.org/) -->

<svg
   xmlns:dc="http://purl.org/dc/elements/1.1/"
   xmlns:cc="http://creativecommons.org/ns#"
   xmlns:rdf="http://www.w3.org/1999/02/22-rdf-syntax-ns#"
   xmlns:svg="http://www.w3.org/2000/svg"
   xmlns="http://www.w3.org/2000/svg"
   xmlns:sodipodi="http://sodipodi.sourceforge.net/DTD/sodipodi-0.dtd"
   xmlns:inkscape="http://www.inkscape.org/namespaces/inkscape"
   width="210mm"
   height="297mm"
   viewBox="0 0 210 297"
   version="1.1"
   id="svg3829"
   inkscape:version="0.92.2 5c3e80d, 2017-08-06"
   sodipodi:docname="stars.svg">
  <defs
     id="defs3823" />
  <sodipodi:namedview
     id="base"
     pagecolor="#ffffff"
     bordercolor="#666666"
     borderopacity="1.0"
     inkscape:pageopacity="0.0"
     inkscape:pageshadow="2"
     inkscape:zoom="0.5"
     inkscape:cx="-79.88817"
     inkscape:cy="623.4464"
     inkscape:document-units="mm"
     inkscape:current-layer="layer1"
     showgrid="false"
     inkscape:window-width="1280"
     inkscape:window-height="707"
     inkscape:window-x="0"
     inkscape:window-y="0"
     inkscape:window-maximized="0" />
  <metadata
     id="metadata3826">
    <rdf:RDF>
      <cc:Work
         rdf:about="">
        <dc:format>image/svg+xml</dc:format>
        <dc:type
           rdf:resource="http://purl.org/dc/dcmitype/StillImage" />
        <dc:title />
      </cc:Work>
    </rdf:RDF>
  </metadata>
  <g
     inkscape:label="Layer 1"
     inkscape:groupmode="layer"
     id="layer1">
    <path
       id="path3898"
       style="fill:#000000;stroke-width:0.26458332"
       d="m 132.78771,153.93847 a 27.403273,16.252977 0 0 1 -9.31353,18.65325 27.403273,16.252977 0 0 1 -32.800296,-0.006 27.403273,16.252977 0 0 1 -9.294574,-18.65658 m 15.560891,-21.40025 -7.080641,-3.68704 -7.181521,3.49763 1.417534,-7.68859 -5.639546,-5.5617 7.956723,-1.06476 3.696095,-6.93494 3.499987,7.03052 7.923858,1.27567 -5.793604,5.40986 z m 33.639879,0 -7.08064,-3.68704 -7.18152,3.49763 1.41753,-7.68859 -5.63954,-5.5617 7.95672,-1.06476 3.6961,-6.93494 3.49998,7.03052 7.92386,1.27567 -5.7936,5.40986 z m -23.8774,-46.590837 a 53.710413,53.710413 0 0 0 -53.710418,53.710417 53.710413,53.710413 0 0 0 53.710418,53.71041 53.710413,53.710413 0 0 0 53.71041,-53.71041 53.710413,53.710413 0 0 0 -53.71041,-53.710417 z m -0.26459,7.408334 a 46.037497,46.566666 0 0 1 46.0375,46.566663 46.037497,46.566666 0 0 1 -46.0375,46.56667 46.037497,46.566666 0 0 1 -46.037495,-46.56667 46.037497,46.566666 0 0 1 46.037495,-46.566663 z"
       inkscape:connector-curvature="0" />
  </g>
</svg>
