<?xml version="1.0" encoding="UTF-8" standalone="no"?>
<!-- Created with Inkscape (http://www.inkscape.org/) -->

<svg
   xmlns:dc="http://purl.org/dc/elements/1.1/"
   xmlns:cc="http://creativecommons.org/ns#"
   xmlns:rdf="http://www.w3.org/1999/02/22-rdf-syntax-ns#"
   xmlns:svg="http://www.w3.org/2000/svg"
   xmlns="http://www.w3.org/2000/svg"
   xmlns:sodipodi="http://sodipodi.sourceforge.net/DTD/sodipodi-0.dtd"
   xmlns:inkscape="http://www.inkscape.org/namespaces/inkscape"
   width="210mm"
   height="297mm"
   viewBox="0 0 210 297"
   version="1.1"
   id="svg3928"
   inkscape:version="0.92.2 5c3e80d, 2017-08-06"
   sodipodi:docname="tongue.svg">
  <defs
     id="defs3922" />
  <sodipodi:namedview
     id="base"
     pagecolor="#ffffff"
     bordercolor="#666666"
     borderopacity="1.0"
     inkscape:pageopacity="0.0"
     inkscape:pageshadow="2"
     inkscape:zoom="0.70710678"
     inkscape:cx="136.8974"
     inkscape:cy="699.01832"
     inkscape:document-units="mm"
     inkscape:current-layer="layer1"
     showgrid="false"
     inkscape:window-width="1280"
     inkscape:window-height="707"
     inkscape:window-x="0"
     inkscape:window-y="1"
     inkscape:window-maximized="1" />
  <metadata
     id="metadata3925">
    <rdf:RDF>
      <cc:Work
         rdf:about="">
        <dc:format>image/svg+xml</dc:format>
        <dc:type
           rdf:resource="http://purl.org/dc/dcmitype/StillImage" />
        <dc:title />
      </cc:Work>
    </rdf:RDF>
  </metadata>
  <g
     inkscape:label="Layer 1"
     inkscape:groupmode="layer"
     id="layer1">
    <path
       id="path3990"
       style="fill:#000000;stroke-width:0.26458332"
       d="m 72.06807,147.67185 a 29.104166,9.0714292 0 0 0 12.173934,9.41234 29.104166,9.0714292 0 0 0 9.696566,1.31 7.3705391,19.193925 0 0 0 3.222543,14.63838 7.3705391,19.193925 0 0 0 8.245497,0.008 7.3705391,19.193925 0 0 0 3.23132,-14.76602 29.104166,9.0714292 0 0 0 8.16281,-1.18649 29.104166,9.0714292 0 0 0 12.19616,-9.40925 l -28.46648,1.88775 z m 29.17651,10.95333 -0.33641,12.10779 c -0.27718,0.32758 -0.62467,0.60689 -0.83147,0.98289 v 0.52916 c 0,0.17639 -0.08501,-0.3746 0,-0.52916 v -4.7625 c 0,-0.19433 0.0213,-2.09537 0,-2.11667 -0.124728,-0.12473 -0.404445,0.12472 -0.52917,0 -0.124724,-0.12473 0,-0.35278 0,-0.52917 v -1.05833 -1.05833 c 0,-1.66045 0.0039,-2.24886 0.76533,-3.55379 a 29.104166,9.0714292 0 0 0 0.93172,-0.0119 z m -9.105386,-39.03219 a 8.9958335,10.31875 0 0 1 -8.995836,10.31874 8.9958335,10.31875 0 0 1 -8.995833,-10.31874 8.9958335,10.31875 0 0 1 8.995833,-10.31876 8.9958335,10.31875 0 0 1 8.995836,10.31876 z m 33.337496,0 a 8.9958335,10.31875 0 0 1 -8.99583,10.31874 8.9958335,10.31875 0 0 1 -8.99583,-10.31874 8.9958335,10.31875 0 0 1 8.99583,-10.31876 8.9958335,10.31875 0 0 1 8.99583,10.31876 z M 100.34128,81.228356 A 53.710413,53.710413 0 0 0 46.630864,134.93877 53.710413,53.710413 0 0 0 100.34128,188.64919 53.710413,53.710413 0 0 0 154.0517,134.93877 53.710413,53.710413 0 0 0 100.34128,81.228356 Z m -0.26458,7.408333 A 46.037497,46.566666 0 0 1 146.1142,135.20336 46.037497,46.566666 0 0 1 100.0767,181.77002 46.037497,46.566666 0 0 1 54.039197,135.20336 46.037497,46.566666 0 0 1 100.0767,88.636689 Z"
       inkscape:connector-curvature="0" />
  </g>
</svg>
